<?xml version="1.0" encoding="utf-8"?>
<!-- Generator: Adobe Illustrator 19.2.1, SVG Export Plug-In . SVG Version: 6.00 Build 0)  -->
<svg version="1.1" id="layer" xmlns="http://www.w3.org/2000/svg" xmlns:xlink="http://www.w3.org/1999/xlink" x="0px" y="0px"
	 viewBox="0 0 652 652" style="enable-background:new 0 0 652 652;" xml:space="preserve">
<style type="text/css">
	.st0{fill:#F69321;}
	.st1{fill:#D91F5D;}
	.st2{fill:#652F8F;}
	.st3{fill:#E90E8B;}
	.st4{fill:#1D76BB;}
	.st5{fill:#D7DE27;}
</style>
<g>
	<path d="M20.6,207.5h17.5L57,264.6c2,6,4.1,15.3,4.1,15.3s2.7-9.1,5.2-15.3l24.6-58.2h2l24.8,58.2c2.5,6,5,15.3,5,15.3
		s2.2-9.3,4.3-15.3l18.9-57.1h16.2l-37.1,108.3h-2L96.4,252c-2.2-5.2-4.4-13.1-4.4-13.1s-2.5,7.9-4.7,13.1L60,315.8H58L20.6,207.5z"
		/>
	<path d="M284.5,206.4h1.7l51.2,59.9l50.8-59.9h1.7v108.3H374v-55.7c0-6,0.6-15.4,0.6-15.4s-5.2,8-9.6,12.9l-27,32.5h-1.9l-27-32.5
		c-4.1-4.9-9.5-12.9-9.5-12.9s0.6,9.5,0.6,15.4v55.7h-15.9V206.4z"/>
	<polygon points="407.9,207.5 476,207.5 476,222.2 424.6,222.2 424.6,263.8 470.2,263.8 470.2,278.2 424.6,278.2 424.6,300.1 
		478.2,300.1 478.2,314.7 407.9,314.7 	"/>
	<path d="M517,252.1c-4.3-4.6-10.1-12-10.1-12s1.1,8.8,1.1,15.4v59.1h-15.4V206.4h2.2l59.1,63.5c4.1,4.4,9.9,12,9.9,12
		s-1.1-9.5-1.1-15.4v-59h15.4v108.3h-2L517,252.1z"/>
	<path d="M28.9,390c0-33,25.4-56.8,57.1-56.8c31.6,0,57,23.8,57,56.8s-25.4,56.8-57,56.8C54.3,446.8,28.9,423.1,28.9,390 M125.4,390
		c0-23.6-16.3-41.3-39.4-41.3c-23.1,0-39.5,17.7-39.5,41.3c0,23.6,16.4,41.3,39.5,41.3C109.1,431.4,125.4,413.6,125.4,390"/>
	<path d="M142.1,334.7h18.1l19.5,58.9c2.1,6.2,4.2,15.8,4.2,15.8s2.8-9.4,5.4-15.8l25.4-60.1h2.1l25.6,60.1
		c2.6,6.2,5.2,15.8,5.2,15.8s2.3-9.6,4.4-15.8l19.5-58.9h16.8l-38.2,111.8h-2.1l-27.5-65.9c-2.3-5.4-4.6-13.5-4.6-13.5
		s-2.6,8.1-4.9,13.5l-28.2,65.9h-2.1L142.1,334.7z"/>
	<path d="M323.3,380.8c-4.4-4.7-10.4-12.4-10.4-12.4s1.1,9.1,1.1,15.9v61h-15.9V333.6h2.3l61,65.6c4.2,4.6,10.3,12.4,10.3,12.4
		s-1.1-9.8-1.1-15.9v-60.9h16v111.8h-2.1L323.3,380.8z"/>
	<polygon points="405,334.7 475.3,334.7 475.3,349.8 422.3,349.8 422.3,392.8 469.3,392.8 469.3,407.6 422.3,407.6 422.3,430.2 
		477.6,430.2 477.6,445.4 405,445.4 	"/>
	<path d="M492.4,334.7h30.4c35.5,0,59.1,22.1,59.1,55.3c0,33.2-23.4,55.3-59.1,55.3h-30.4V334.7z M521.7,430.2
		c28.8,0,42.3-16.6,42.3-40.2c0-23.6-13.5-40.2-42.3-40.2h-12v80.4H521.7z"/>
	<path class="st0" d="M190.9,249.3c2.9,1.1,5.9,2.8,8.9,5.2c0.1-0.1,0.2-0.3,0.4-0.4c1.1-1.3,2.1-2.7,2.9-4.1
		c1.1-1.8,1.9-3.8,2.5-5.9c0.2-0.7,0.4-1.4,0.5-2.1l0.2-1.2c0.1-0.7,0.2-1.3,0.3-1.8c0.4-2.7,0.4-5.6,0.1-8.6c-0.3-3.1-1-6.4-2-9.8
		c-0.1-0.5-0.4-0.9-0.7-1.5c-0.9-1.5-2.3-2.5-3.9-3c-1.3-0.4-2.5-0.4-3.9,0c-1.7,0.5-3.1,1.7-4,3.3c-0.9,1.6-1.1,3.4-0.5,5.1
		c0.2,0.6,0.4,1.2,0.5,1.8c0.2,0.7,0.3,1.3,0.4,2c0.1,0.5,0.2,1,0.3,1.4c0.1,0.4,0.1,0.9,0.2,1.3c0.3,2.7,0.3,5.1-0.1,7.3
		c-0.2,1-0.4,1.9-0.7,2.7c-0.3,0.8-0.6,1.5-1.1,2.3c-0.5,0.9-1.1,1.7-1.8,2.5c-0.6,0.6-1.2,1.3-1.9,1.8c-0.2,0.1-0.3,0.3-0.5,0.4
		c0.6,0.2,1.2,0.5,1.8,0.7L190.9,249.3z"/>
	<path class="st0" d="M174.1,240.6c4.6,0,8.3-3.7,8.3-8.3c0-4.6-3.7-8.3-8.3-8.3c-4.6,0-8.3,3.7-8.3,8.3
		C165.8,236.9,169.6,240.6,174.1,240.6"/>
	<path class="st1" d="M191.9,275.2c0.5,0.9,0.9,1.8,1.2,2.8c0.3,0.8,0.5,1.7,0.6,2.6c0,0.2,0.1,0.4,0.1,0.6c0.5-0.4,0.9-0.8,1.4-1.1
		l1.8-1.4c2.4-2,5.4-3.8,8.9-5.1c-0.1-0.2-0.1-0.3-0.2-0.5c-0.6-1.6-1.3-3.1-2.1-4.6c-1.1-1.8-2.4-3.6-3.8-5.2c-0.5-0.5-1-1-1.5-1.5
		l-0.9-0.8c-0.5-0.5-1-0.8-1.4-1.2c-2.2-1.7-4.7-3.1-7.4-4.4c-2.8-1.3-6-2.3-9.5-3.2c-0.4-0.1-0.9-0.2-1.5-0.2
		c-1.9,0-3.5,0.7-4.7,1.8c-1,0.9-1.6,2-2,3.3c-0.4,1.8-0.1,3.6,0.8,5.1c0.9,1.5,2.4,2.6,4.2,3c0.6,0.2,1.2,0.3,1.8,0.5
		c0.7,0.2,1.3,0.4,1.9,0.6c0.5,0.2,0.9,0.3,1.4,0.5c0.4,0.1,0.8,0.3,1.2,0.5c2.5,1.1,4.6,2.3,6.3,3.7c0.8,0.7,1.4,1.3,2,2
		C191,273.8,191.5,274.4,191.9,275.2"/>
	<path class="st1" d="M178,277.5c-1.3-0.7-2.7-1.1-4.1-1.1c-3,0-5.7,1.6-7.2,4.1c-1.1,1.9-1.4,4.1-0.8,6.3c0.6,2.1,1.9,3.9,3.9,5
		c1.3,0.7,2.7,1.1,4.1,1.1c3,0,5.7-1.6,7.2-4.1c1.1-1.9,1.4-4.1,0.8-6.3C181.3,280.4,179.9,278.6,178,277.5"/>
	<path class="st2" d="M198.6,301.8c1.8,0,3.5-0.8,4.7-2.1c0.4-0.5,0.9-0.9,1.3-1.3c0.5-0.5,1-0.9,1.5-1.4c0.4-0.3,0.7-0.7,1.1-1
		c0.3-0.3,0.6-0.5,1-0.8c2.2-1.7,4.3-2.9,6.4-3.6c1-0.3,1.8-0.6,2.7-0.7c1.8-0.3,3.7-0.3,5.5,0.1c0.9,0.2,1.7,0.4,2.5,0.8
		c0.2,0.1,0.4,0.1,0.6,0.2c-0.1-0.6-0.2-1.2-0.3-1.8l-0.4-2.2c-0.6-3.1-0.5-6.5,0-10.3c-0.2,0-0.4-0.1-0.5-0.1
		c-1.6-0.3-3.3-0.4-5-0.4c-2.1,0-4.3,0.2-6.4,0.7c-0.7,0.2-1.4,0.4-2.1,0.6l-1.2,0.4c-0.7,0.3-1.2,0.4-1.7,0.6
		c-2.5,1.1-5.1,2.5-7.5,4.3c-2.5,1.8-5,4.1-7.5,6.6c-0.3,0.4-0.6,0.8-0.9,1.3c-0.8,1.5-1.1,3.2-0.7,4.9c0.3,1.3,0.9,2.4,1.9,3.3
		c1.2,1.2,2.9,1.8,4.6,1.8H198.6z"/>
	<path class="st2" d="M219,302.8c-1.4,0-2.9,0.4-4.1,1.1c-4,2.3-5.3,7.4-3,11.3c1.5,2.6,4.2,4.2,7.2,4.2c1.4,0,2.9-0.4,4.1-1.1
		c4-2.3,5.3-7.4,3-11.3C224.7,304.4,222,302.8,219,302.8"/>
	<path class="st3" d="M247.7,268.1c-2.9-1.1-5.9-2.8-8.9-5.2c-0.1,0.1-0.2,0.3-0.3,0.4c-1.1,1.3-2.1,2.7-2.9,4.1
		c-1.1,1.8-1.9,3.8-2.5,5.9c-0.2,0.7-0.4,1.4-0.5,2.1l-0.2,1.2c-0.2,0.8-0.2,1.3-0.3,1.8c-0.4,2.7-0.4,5.6-0.1,8.7
		c0.3,3.1,1,6.4,2,9.8c0.1,0.5,0.4,0.9,0.7,1.5c0.9,1.5,2.2,2.5,3.9,3c1.3,0.4,2.5,0.4,3.9,0c1.7-0.5,3.2-1.7,4-3.3
		c0.9-1.6,1-3.4,0.5-5.1c-0.2-0.6-0.4-1.2-0.5-1.8c-0.2-0.7-0.3-1.3-0.5-2c-0.1-0.5-0.2-1-0.3-1.4c-0.1-0.4-0.1-0.9-0.2-1.3
		c-0.3-2.7-0.3-5.1,0.1-7.3c0.2-1,0.4-1.9,0.7-2.7c0.3-0.8,0.6-1.5,1.1-2.2c0.5-0.9,1.1-1.7,1.8-2.5c0.6-0.6,1.2-1.2,1.9-1.8
		c0.2-0.1,0.3-0.3,0.5-0.4c-0.6-0.2-1.2-0.5-1.8-0.7L247.7,268.1z"/>
	<path class="st3" d="M264.5,276.9c-4.6,0-8.3,3.7-8.3,8.3c0,4.6,3.7,8.3,8.3,8.3c4.6,0,8.3-3.7,8.3-8.3
		C272.8,280.6,269.1,276.9,264.5,276.9"/>
	<path class="st4" d="M261.2,265.4c1.7,0,3.3-0.7,4.6-1.8c1-0.9,1.6-2,1.9-3.3c0.4-1.8,0.1-3.6-0.8-5.1c-0.9-1.5-2.4-2.6-4.2-3
		c-0.6-0.1-1.2-0.3-1.8-0.5c-0.7-0.2-1.3-0.4-1.9-0.6c-0.5-0.2-0.9-0.3-1.4-0.5c-0.4-0.1-0.8-0.3-1.2-0.5c-2.5-1.1-4.6-2.3-6.3-3.7
		c-0.8-0.7-1.4-1.3-2-2c-0.5-0.6-1-1.3-1.4-2c-0.5-0.9-0.9-1.8-1.3-2.8c-0.3-0.8-0.5-1.7-0.6-2.6c0-0.2-0.1-0.4-0.1-0.6
		c-0.5,0.4-1,0.8-1.4,1.2l-1.7,1.4c-2.4,2-5.4,3.7-8.9,5.1c0.1,0.2,0.1,0.3,0.2,0.5c0.6,1.6,1.3,3.1,2.1,4.6
		c1.1,1.8,2.4,3.6,3.8,5.2c0.5,0.5,1,1,1.5,1.5l0.9,0.8c0.5,0.5,1,0.8,1.4,1.2c2.2,1.7,4.7,3.1,7.5,4.4c2.9,1.3,6,2.3,9.5,3.2
		c0.4,0.1,0.9,0.1,1.5,0.1H261.2z"/>
	<path class="st4" d="M260.7,240c3.8,2.2,9.1,0.8,11.3-3c2.3-4,0.9-9.1-3-11.3c-1.3-0.7-2.7-1.1-4.1-1.1c-3,0-5.7,1.6-7.2,4.1
		c-1.1,1.9-1.4,4.1-0.8,6.3C257.4,237.1,258.8,238.9,260.7,240"/>
	<path class="st5" d="M213.3,229.4c0.5,3.1,0.5,6.6,0,10.3c0.2,0,0.3,0.1,0.5,0.1c3.7,0.7,7.7,0.6,11.4-0.3c0.7-0.2,1.4-0.4,2.1-0.6
		l1.2-0.4c0.7-0.2,1.2-0.4,1.7-0.6c2.6-1.1,5.1-2.5,7.5-4.3c2.5-1.8,5-4,7.5-6.6c0.3-0.3,0.6-0.8,0.9-1.3c0.8-1.5,1.1-3.2,0.7-4.9
		c-0.3-1.4-0.9-2.4-1.9-3.4c-1.3-1.2-2.9-1.8-4.6-1.8c-2,0.1-3.7,0.8-4.9,2.1c-0.4,0.5-0.9,0.9-1.3,1.3c-0.5,0.5-1,0.9-1.5,1.4
		c-0.4,0.3-0.7,0.7-1.1,1c-0.3,0.3-0.7,0.5-1,0.8c-2.2,1.6-4.3,2.8-6.4,3.6c-1,0.3-1.8,0.6-2.7,0.7c-1.8,0.3-3.6,0.3-5.5-0.1
		c-0.9-0.2-1.7-0.4-2.5-0.8c-0.2-0.1-0.4-0.2-0.6-0.2c0.1,0.7,0.2,1.3,0.3,1.9L213.3,229.4z"/>
	<path class="st5" d="M223.8,213.5c4-2.3,5.3-7.4,3-11.3c-1.5-2.6-4.2-4.1-7.2-4.1c-1.4,0-2.9,0.4-4.1,1.1c-1.9,1.1-3.3,2.9-3.9,5
		c-0.6,2.1-0.3,4.4,0.8,6.3C214.6,214.3,219.9,215.8,223.8,213.5"/>
	<path d="M600.3,207.5v2.6h-5.1v13.3H592v-13.3h-5v-2.6H600.3z M617.4,223.4l-0.6-9.4c-0.1-1.2-0.1-2.7-0.1-4.4h-0.2
		c-0.4,1.4-0.9,3.3-1.3,4.7l-2.9,8.8h-3.3l-2.9-9.1c-0.3-1.2-0.8-3.1-1.1-4.5h-0.2c0,1.5-0.1,3-0.1,4.4l-0.6,9.4h-3l1.2-15.9h4.7
		l2.7,7.8c0.4,1.2,0.6,2.4,1.1,4h0.1c0.4-1.4,0.8-2.8,1.1-3.9l2.7-7.9h4.6l1.2,15.9H617.4z"/>
</g>
</svg>
